<svg xmlns="http://www.w3.org/2000/svg" viewBox="0 0 400 100">
  <!-- Background cloud shape -->
  <path d="M20 45 C20 25, 40 15, 60 15 C70 15, 80 20, 85 30 C90 20, 100 15, 110 15 C130 15, 145 30, 145 45 C145 60, 130 75, 110 75 L40 75 C25 75, 20 60, 20 45"
        fill="#0078D4" opacity="0.2"/>

  <!-- Elephant silhouette -->
  <g transform="translate(30,20)">
    <!-- Head -->
    <path d="M40 40 C40 25, 50 15, 65 15 C80 15, 90 25, 90 40 C90 55, 80 65, 65 65 C50 65, 40 55, 40 40"
          fill="#0078D4"/>
    <!-- Trunk -->
    <path d="M75 45 C75 45, 85 50, 85 60 C85 65, 80 70, 75 70 C70 70, 65 65, 65 60 C65 50, 75 45, 75 45"
          fill="#0078D4"/>
    <!-- Ear -->
    <path d="M45 35 C45 25, 55 20, 65 25 C60 30, 55 35, 45 35"
          fill="#0078D4"/>
  </g>

  <!-- Cloud elements -->
  <circle cx="140" cy="35" r="10" fill="#0078D4" opacity="0.3"/>
  <circle cx="160" cy="45" r="8" fill="#0078D4" opacity="0.3"/>

  <!-- Text -->
  <text x="180" y="50" font-family="Arial, sans-serif" font-size="24" fill="#0078D4">Gradle Azure Plugin</text>
</svg>